<?xml version="1.0" encoding="utf-8"?>
<!-- Generator: Adobe Illustrator 24.1.1, SVG Export Plug-In . SVG Version: 6.00 Build 0)  -->
<svg version="1.1" id="_x2018_лой_x5F_1" xmlns="http://www.w3.org/2000/svg" xmlns:xlink="http://www.w3.org/1999/xlink"
	 x="0px" y="0px" viewBox="0 0 3200 2000" style="enable-background:new 0 0 3200 2000;" xml:space="preserve">
<style type="text/css">
	.st0{fill:#FFFFFF;}
	.st1{fill:#EBF3FA;}
	.st2{fill:#CDE0FB;}
	.st3{fill:#DFEBFD;}
	.st4{fill:#F99746;}
	.st5{fill:#AEC3FF;}
	.st6{fill:#FFF7F0;}
	.st7{fill:#F9DEC7;}
	.st8{fill:#FFB27D;}
	.st9{fill:#233862;}
	.st10{fill:#2B478B;}
	.st11{fill:#ED975D;}
	.st12{fill:#95B3EF;}
	.st13{fill:#ED7D2B;}
	.st14{fill:#1B3770;}
	.st15{fill:#E8C2A3;}
	.st16{fill:#F78248;}
	.st17{fill:#699DEE;}
	.st18{fill:#4B87DD;}
	.st19{fill:#F9DDBF;}
	.st20{fill:#1F4075;}
	.st21{fill:#EF7E29;}
	.st22{fill:#ED985F;}
	.st23{fill:#2C3A64;}
	.st24{fill:#AFCDFB;}
	.st25{fill:#EA642F;}
	.st26{fill:#EF873A;}
	.st27{fill:#A6C7ED;}
	.st28{fill:#E3F0FF;}
	.st29{fill:#1C3D72;}
	.st30{fill:#FCA56B;}
	.st31{fill:#163560;}
	.st32{fill:#1F4D84;}
	.st33{opacity:0.5;}
	.st34{fill:#B3CFF9;}
	.st35{fill:#2E3552;}
</style>
<rect class="st0" width="3200" height="2000"/>
<g>
	<path class="st1" d="M372.3,1818.6c0,0-297.4-83.8-161-467.8C347.6,966.9,607,1132.5,532.1,796.7
		C433.2,353.9,851.8,52.8,1312,175.5c460.2,122.6,336.9,259,877.7,121.7c659.3-167.4,714.9,528.9,562,760.2
		c-152.9,231.3,417.4,264.6,181.8,761.3H372.3z"/>
	<g>
		<path class="st2" d="M2451.2,947.6c0,0,76.2-155.4,118.8-141.6C2612.7,819.8,2451.2,947.6,2451.2,947.6z"/>
		<path class="st2" d="M2396.4,1017.9c0,0,182.5-178.9,253.5-146.3s-43.2,67.6-86.8,77.2C2519.6,958.3,2396.4,1017.9,2396.4,1017.9z
			"/>
	</g>
	<path class="st2" d="M2853.9,1692.4c65.2-42.8,3.3-156.3,3.3-156.3s-152.1-40.9-162.9-63.8c-10.8-22.9,136.9,9.6,136.9,9.6
		c-10.7-47.7-105.9-146.9-105.9-146.9s-143.7,55.3-148.5,30.5s129.7-42.5,129.7-42.5c-28.1-40.3-93.9-65-93.9-65
		c-102.1-24.3-128.1,108-128.1,108s-50.2,18.1-118.6,5.9l0,0c0,0-13.1-3.5-33.7-4.7l4,12.2c3.6-0.1,7.1,0,10.5,0.2c0,0,0,0,0.1,0
		c0,0,0.1,0,0.1,0c2.2,0.2,5.2,0.5,9,1c0,0,0,0,0,0c0,0,0,0,0,0c8.5,1.3,14.7,2.1,19.1,2.4c0,0,0,0,0,0c26.6,3.7,61.7,10,71.4,18.6
		c0,0,1.5-2,4.7-4.4c-1.5,1.4-3.1,2.9-4.7,4.4c-37.9,35.5-11.1,142.3,19.9,196.6c31,54.2,39.1,23.5,55.4-16.5s-12.2-103.3-8.1-126.1
		c4.1-22.8,23.8,2.1,33.5,41.8c9.7,39.7-22.7,71.8-8.1,136.4s148,73.7,148,73.7c-27.6-38.8-29.1-124.2-15.2-132.1
		c13.9-7.9,50.1,107.4,60.4,123.8S2788.7,1735.2,2853.9,1692.4z"/>
	<g>
		<path class="st3" d="M794.4,1121.6c0,0-96.1-196-149.9-178.6C590.8,960.4,794.4,1121.6,794.4,1121.6z"/>
		<path class="st3" d="M863.6,1210.3c0,0-230.2-225.7-319.7-184.5c-89.5,41.2,54.5,85.3,109.5,97.3
			C708.3,1135.1,863.6,1210.3,863.6,1210.3z"/>
	</g>
	<path class="st2" d="M429.5,1339.9c1.2-68.6,114.6-75.9,114.6-75.9s101.9,93.8,124,91c22.1-2.7-71.5-97.2-71.5-97.2
		c40.4-14.5,158.9,9.7,158.9,9.7s26.4,132.7,47.1,124.7c20.7-8.1-29.4-116.3-29.4-116.3c43.2,1.9,92.4,39.3,92.4,39.3
		c66,64.4-20.1,145.9-20.1,145.9s10.1,45.8,51.4,90.9l0,0c0,0,8.8,8,19.3,22.8l-10.9,2.8c-1.6-2.7-3.3-5.3-5.1-7.7c0,0,0,0,0,0
		c0,0-0.1-0.1-0.1-0.1c-1.2-1.5-2.9-3.6-4.9-6.2c0,0,0,0,0,0c0,0,0,0,0,0c-5-5.7-8.5-10-10.8-13.1c0,0,0,0,0,0
		c-15.2-18-147.9,30.8-202.8,33.3s-35.8-18-13.8-48.9c22.1-31,82.5-39.5,97.5-53.3c15-13.7-12.7-16.7-46.8-5.2s-42.7,50.6-97.5,70.1
		c-54.8,19.5-124.3-75.3-124.3-75.3c41.8,2.2,105.9-36.7,105.2-50.7c-0.7-14-103.3,13.3-120.4,13.3
		C464.5,1433.4,428.3,1408.4,429.5,1339.9z"/>
	<g>
		<path class="st4" d="M1582.2,1813.7H772.6c-17.6,0-31.8-14.3-31.8-31.9V700.1c0-18.1,15-32.6,33-31.9l840.3,38.8v1074.8
			C1614,1799.4,1599.8,1813.7,1582.2,1813.7z"/>
		<path class="st4" d="M1645.9,1813.7h809.6c17.6,0,31.8-14.3,31.8-31.9V700.1c0-18.1-15-32.6-33-31.9L1614,706.9v1074.8
			C1614,1799.4,1628.3,1813.7,1645.9,1813.7z"/>
		<path class="st5" d="M802,715.1l-26.2,21.3c-3.7,3-5.9,7.6-5.9,12.4v1048.6c0,8.8,7,15.9,15.5,15.9h65.4c8.9,0,16-7.7,15.5-16.9
			L802,715.1z"/>
		<path class="st5" d="M2427.6,715.1l26.2,21.3c3.7,3,5.9,7.6,5.9,12.4v1048.6c0,8.8-7,15.9-15.5,15.9h-65.4
			c-8.9,0-16-7.7-15.5-16.9L2427.6,715.1z"/>
		<path class="st6" d="M1584.1,1813.7H822.3c-16.5,0-30-13.8-30-30.9v-1045c0-17.5,14.1-31.5,31.1-30.8l664.9,25.7
			c70.2,2.7,125.7,62.1,125.7,134.4v915.8C1614,1799.9,1600.6,1813.7,1584.1,1813.7z"/>
		<path class="st6" d="M1641.5,1813.7h766.7c15.2,0,27.5-12.7,27.5-28.3V735.2c0-16.1-12.9-28.9-28.5-28.3l-681.6,26.3
			c-62.3,2.4-111.6,55.1-111.6,119.3v932.9C1614,1801,1626.3,1813.7,1641.5,1813.7z"/>
		<g>
			<rect x="1612" y="914.9" class="st7" width="4.1" height="678.6"/>
		</g>
	</g>
	<g>
		<g>
			<path class="st8" d="M2012.7,847.2c1.5,1.8,1.7,3.8,0.9,5.9c0,0,0,0,0,0c-1.4,3.9-6.1,8.2-11.6,12.5c-0.7,0.6-1.3,1.1-1.9,1.5
				c-0.1,0.1-0.3,0.2-0.4,0.4c-0.1,0.1-0.2,0.2-0.3,0.3c-5.1,4.6-3.2,5.7-12.3,15.1c-10.4,10.7-17.5,10.8-19.5,9.8
				c-1.7-0.8,1.8-6.5,5.7-12.9c0.2-0.3,0.4-0.6,0.6-0.9c0.5-0.8,1-1.7,1.6-2.6c4.6-7.7,3.4-11.3,2.4-22.8
				c-0.8-9.3-14.2-52.2-14.2-52.2l19.8-3.3c0,0,5.7,34.1,12.3,39.4c3.5,2.8,7.4,2.9,10.8,5c0.2,0.1,0.5,0.3,0.7,0.4
				C2009.2,844.1,2011.2,845.4,2012.7,847.2z"/>
			<path class="st9" d="M2012.7,847.2c1.5,1.8,1.7,3.8,0.9,5.9c0,0,0,0,0,0c-1.8,3.9-6.3,8.2-11.6,12.5c-0.7,0.6-1.3,1.1-1.8,1.6
				c-0.1,0.1-0.3,0.2-0.4,0.4c-0.1,0.1-0.2,0.2-0.3,0.3c-5.1,4.6-3.2,5.7-12.3,15.1c-10.4,10.7-17.5,10.8-19.5,9.8
				c-1.7-0.8,1.8-6.5,5.7-12.9c2-0.7,11.4-4.5,18.5-13.4c6.3-7.9,10.5-18.1,14.8-24c0.2,0.1,0.5,0.3,0.7,0.4
				C2009.2,844.1,2011.2,845.4,2012.7,847.2z"/>
			<path class="st8" d="M1853,833.7c-1.3,6.1-10,5-19.7,2.6c-9.7-2.4-7.4,0.4-21.3-1.2c-13.8-1.6-18-6.8-18.4-8.9
				c-0.4-1.8,6.5-2.4,13.8-3.2c0.9-0.1,1.9-0.2,2.8-0.3c8.3-1,14.4-6.3,22-10.6c7.2-4.1,17.9-21,17.9-21l19,1.6
				c0,0-10.1,15.1-14,21.6c-2.3,3.9-2.2,9-2,12.9C1853.4,829.4,1853.5,831.6,1853,833.7z"/>
			<path class="st9" d="M1833.4,836.3c-9.7-2.4-7.4,0.4-21.3-1.2c-13.8-1.6-18-6.8-18.4-8.9c-0.4-1.8,6.5-2.4,13.8-3.2l0.1,0.1
				c0,0,8.3,6,19.8,6.3c9.4,0.3,19.4-2.3,25.9-2.2c0.1,2.2,0.3,4.4-0.2,6.5C1851.8,839.8,1843.1,838.7,1833.4,836.3z"/>
			<path class="st9" d="M1991.2,816.5c0,0-1.3,0.9-3.3,2c-2.4,1.3-5.6,2.9-8.7,3.8c-3.2,0.9-6.5,1.1-8.9,1.2c-2.1,0-3.4-0.1-3.4-0.1
				l-22.8-62.6l-4.1-11.3l-4.4-12l-1.5-4.2l-7.4-20.4c0,0,18.1-46.4,36.6-24.3c2.2,2.7,4.4,6.6,6.3,11.4c1.3,3.3,2.6,7,3.8,11
				c0.9,3,1.8,6.2,2.6,9.5c2.3,9,4.3,19,6.1,29C1988.2,782.7,1991.2,816.5,1991.2,816.5z"/>
			<path class="st10" d="M2113.5,717.9l-92.3,3.9c-20.2-4.2-37.3-14.9-48.9-20.6c-1-0.5-1.9-0.9-2.7-1.3c-4-2-6.7-3.3-7.8-3.5
				c-7-1.5-10.6,10-16.6,24c-1.2,2.9-2.5,5.8-4,8.8c-1,2.1-3,4.9-5.6,8.1c-0.5,0.6-1,1.2-1.5,1.8c-20.4,23.9-73,68.3-73,68.3
				s-0.6,0-1.6,0c-3.2-0.1-10.4-0.4-13.8-1.7c-2-0.8-3.4-1.6-4.5-2.3c-1.5-1.1-2.1-1.9-2.1-1.9s62.9-123,95.5-156.5v0
				c0.5-0.5,0.9-1,1.4-1.4c3.6-3.5,6.7-5.8,9.3-6.6c11.1-3.5,82.9,0.4,82.9,0.4l2.3-3.7l3.8-0.3l0.7,0l3.2-0.2h0l4.4-0.3l6.6-0.5
				l17.7-1.3l2.9-0.2l32.8-2.3c0,0,1.5,3.4,3.5,9c0.8,2.2,1.7,4.7,2.5,7.5C2114.5,663.2,2122.1,696.2,2113.5,717.9z"/>
			<path class="st9" d="M2134.5,506.1c-16.4-14-28.1-17.5-29.7-39.6c-0.9-12-17-51.8-44.3-48.3c-2.3,0.3-4.6,0.5-6.9,0.4
				c-3.2-0.1-8.5,0.3-13.9,3.5c-13.2,7.7-37.4,78.9-21,103.9c2.9,4.5,7.2,7.5,13,8.4c0.7,0.4,1.4,0.8,2.1,1.2h0
				c2.9,1.6,6.2,3.5,9.6,5.4c19.3,10.9,44.6,25.3,57.5,32.5h0c0.8,0.4,1.5,0.9,2.2,1.2c1.5,0.8,2.8,1.5,3.8,2.1
				c1.5,0.8,2.4,1.3,2.5,1.3c0,0,3.3,1.3,8,2.3c6.5,1.4,15.6,2.1,22-2c2.5-1.6,4.9-3.7,7-6C2159.4,557.6,2162.9,530.3,2134.5,506.1z
				"/>
			<path class="st8" d="M2053.3,522.5c-0.1,0.1,12.6,4.5,21.1,0.8c8-3.5,14.2-16.6,14.1-16.6c-3.6-0.2-7.6-3.4-10.6-24.3l-1.6,0.5
				l-26.2,9.2c0,0,1.8,8.4,3,16.4C2054.2,515.1,2054.7,521.6,2053.3,522.5z"/>
			<path class="st11" d="M2050.2,492.1c0,0,1.1,5.9,2.7,14.3c15-2.6,21.3-15.4,23.5-23.5L2050.2,492.1z"/>
			<path class="st8" d="M2046.3,500.4c0,0,35.7-4.5,32.6-26.7c-3.2-22.2-0.7-37.7-23.6-35.8c-22.9,2-26.2,11.1-26.9,18.7
				C2027.5,464.2,2036.9,501,2046.3,500.4z"/>
			<path class="st9" d="M2029.7,444.4c0,0,22.7,19.9,38.2,21.5c15.5,1.7,21.5-3.3,21.5-3.3s-9.1-7.7-14.5-20c-1.6-3.6-5-6.1-9-6.5
				C2054.8,435.2,2033.7,434.6,2029.7,444.4z"/>
			<path class="st9" d="M2044,442.7c0,0-7.7,7.3-10.1,12.8c-2.4,5.3-3.1,17.9-1.3,23c0,0-11.7-23.2-4.9-34.4
				C2034.8,432.2,2044,442.7,2044,442.7z"/>
			<path class="st5" d="M2022.8,574.9c0.6,72.3-0.1,57.2,7.7,64.1c1.9,1.7,7.2,2.7,14.3,3.2c22.1,1.6,61.1-1.7,62.6-5.8
				c5.2-14.1,1.6-18.6,6.1-40.2c0.5-2.3,1-4.8,1.7-7.5c3.7-14.9,7.2-19.9-5.3-43.9c-11.3-21.8-23-39.4-24.1-38.8
				c-30.3,17.7-32.6,2.6-32.6,2.6S2022.5,539.6,2022.8,574.9z"/>
			<path class="st10" d="M1991.2,816.5c0,0-1.3,0.9-3.3,2c-2.4,1.3-5.6,2.9-8.7,3.8c-3.2,0.9-6.5,1.1-8.9,1.2
				c-2.1,0-3.4-0.1-3.4-0.1l-22.8-62.6l6.7-11.3l17.1-29l5.6-9.5c0.9,3,1.8,6.2,2.6,9.5c2.3,9,4.3,19,6.1,29
				C1988.2,782.7,1991.2,816.5,1991.2,816.5z"/>
			<path class="st5" d="M2053.2,508.4c0,0-31.1,5-34.8,18.4c-3.7,13.3-25.8,91.8-25.8,91.8s15.8,2.9,23.1-4.3
				c7.3-7.2,25.9-67.5,25.9-67.5L2053.2,508.4z"/>
			<path class="st12" d="M2044.9,642.1c22.1,1.6,61.1-1.7,62.6-5.8c5.2-14.1,1.6-18.6,6.1-40.2l-10.5-30.2c0,0,1.5,33.5-8.4,42.3
				c-9.9,8.7-40.6,16.7-45.4,24.1C2046.9,635.8,2045.3,639.3,2044.9,642.1z"/>
			<path class="st8" d="M2070.3,628.2c0,0-21.8-5-25.4-3.1c-3.5,1.9-12.2,8.9-13.3,11.4c-1.1,2.5,7.9-1.8,10.8-2.6
				c1.9-0.5,6.8,1.3,9.3,2.1c10.3,3.5,16.6,1.8,16.6,1.8L2070.3,628.2z"/>
			<path class="st5" d="M2085.8,505.8c0,0,29.3,2,39.4,16.3c14.2,20,41.9,105.3,25.6,116.5c-18.4,12.6-83.4,2.8-83.4,2.8
				s-2.1-10.1,1-15c3-4.9,52-12.4,54.3-14.7c2.3-2.2-27.9-44.2-27.9-51C2094.9,553.8,2085.8,505.8,2085.8,505.8z"/>
			<path class="st8" d="M2043.9,631.2c0,0-4.6,5.9-6.1,6.6c-1.5,0.7-2.5,0.5-2.5,0.5l3.1-5.5L2043.9,631.2z"/>
			<path class="st8" d="M2045,625.1l-13.4,6.4c0,0,0.6,0.9,2.2,0.9c1.6-0.1,5.8-1.5,5.8-1.5L2045,625.1z"/>
		</g>
		<g>
			<g>
				<polygon class="st4" points="2040.6,644 1935.3,643.3 1904.1,564.2 2009.3,565 				"/>
				<polygon class="st13" points="1934.1,640.2 2073.1,641.2 2073.1,644.2 1935.3,643.3 				"/>
			</g>
			<path class="st0" d="M1962.1,604c-0.8-2.8,0.8-5,3.6-5c2.8,0,5.6,2.3,6.4,5.1s-0.8,5-3.6,5C1965.8,609.1,1962.9,606.8,1962.1,604
				z"/>
		</g>
	</g>
	<g>
		<g>
			<path class="st10" d="M900.9,1813h562.2c39.1,0,70.8-31.7,70.8-70.8v-3c0-39.1-31.7-70.8-70.8-70.8H900.9
				c-39.1,0-70.8,31.7-70.8,70.8v3C830.1,1781.3,861.8,1813,900.9,1813z"/>
			<path class="st7" d="M1219.6,1721.5l-0.5,31.6c-0.4,27.9,21.9,51,49.8,51.4l373.7,6l0.1-6.3c-21-10.9-35.1-33-34.7-58.2l0.2-11.1
				c0.4-25.2,15.3-46.8,36.6-57.1l0-0.1l-373.7-6C1243.1,1671.2,1220,1693.5,1219.6,1721.5z"/>
			<g>
				<path class="st14" d="M1652.3,1813h-393.7c-25.4,0-45.3-31.8-45.3-72.3s19.9-72.3,45.3-72.3h393.7c3.3,0,5.9,2.7,5.9,5.9
					c0,3.3-2.7,5.9-5.9,5.9h-393.7c-18.1,0-33.4,27.7-33.4,60.5s15.3,60.5,33.4,60.5h393.7c3.3,0,5.9,2.7,5.9,5.9
					C1658.3,1810.3,1655.6,1813,1652.3,1813z"/>
			</g>
			<g>
				<rect x="1276.2" y="1706.8" class="st15" width="338.6" height="0.9"/>
			</g>
			<g>
				<rect x="1481.5" y="1720" class="st15" width="128.5" height="0.9"/>
			</g>
			<g>
				<rect x="1385.8" y="1764.9" class="st15" width="224.2" height="0.9"/>
			</g>
		</g>
		<path class="st16" d="M1318.3,1707.3c0,0,17.4,7.3,19.4,31.8s0,37.6,0,37.6l-21-10l-21.2,10v-38.4c0,0-0.8-31.1-29.7-31.1H1318.3z
			"/>
	</g>
	<g>
		<g>
			<path class="st17" d="M855.9,1668.4h432.6c25.6,0,46.4-20.8,46.4-46.4v-16.1c0-25.6-20.8-46.4-46.4-46.4H855.9
				c-25.6,0-46.4,20.8-46.4,46.4v16.1C809.5,1647.6,830.3,1668.4,855.9,1668.4z"/>
			<path class="st7" d="M1100.2,1599.5l-0.4,23.8c-0.3,21,16.3,38.3,37.2,38.7l278.9,4.5l0.1-4.7c-15.6-8.2-26.2-24.8-25.9-43.8
				l0.1-8.4c0.3-19,11.4-35.2,27.3-42.9l0-0.1l-278.9-4.5C1117.7,1561.7,1100.5,1578.4,1100.2,1599.5z"/>
			<g>
				<path class="st18" d="M1423.1,1668.3h-293.8c-19,0-33.8-23.9-33.8-54.4c0-30.5,14.8-54.4,33.8-54.4h293.8c2.4,0,4.4,2,4.4,4.4
					s-2,4.5-4.4,4.5h-293.8c-13.5,0-25,20.8-25,45.5c0,24.6,11.4,45.5,25,45.5h293.8c2.4,0,4.4,2,4.4,4.4
					S1425.6,1668.3,1423.1,1668.3z"/>
			</g>
			<g>
				<rect x="1183" y="1588.5" class="st15" width="212.1" height="0.6"/>
			</g>
			<g>
				<rect x="1295.6" y="1598.4" class="st15" width="95.9" height="0.6"/>
			</g>
			<g>
				<rect x="1224.2" y="1632.1" class="st15" width="167.3" height="0.6"/>
			</g>
		</g>
	</g>
	<g>
		<g>
			<path class="st8" d="M2338.5,1469.3c0,0,5.4,16.6,4.9,20.5c-0.5,3.8-3.9,16.8-6.3,20.1s-3.6-13.6-5.5-16.1
				c-1.9-2.5-0.4,6.4-1.7,7.2c-1.4,0.8-4.2-6.5-5.4-9.1s3-12.2,3-18.9C2327.5,1466.3,2338.5,1469.3,2338.5,1469.3z"/>
			<path class="st9" d="M2211.4,1337.1c-1.5-19.1,19.2-32.2,35.6-22.2c0.3,0.2,0.7,0.4,1,0.6c24.5,15.8,77.4,89.4,81,96.8
				c3.6,7.4,14.4,66,14.4,66s-13.3,4.9-19.5-0.2c0,0-21.5-55.6-24.7-58.4c-3.2-2.8-86.1-49.3-86.8-66.8
				C2212.2,1348.3,2211.8,1342.8,2211.4,1337.1z"/>
		</g>
		<g>
			
				<rect x="2042.6" y="1279.7" transform="matrix(-0.3288 -0.9444 0.9444 -0.3288 1468.2015 3713.0916)" class="st4" width="21.9" height="110.3"/>
			<polygon class="st19" points="1977.3,1361.4 2005.1,1363.3 1997.9,1342.6 			"/>
			<path class="st19" d="M2116.6,1309l2.3,6.5c1.4,4-0.7,8.4-4.8,9.8l-4.8,1.7l-7.2-20.7l5.2-1.8
				C2111.1,1303.2,2115.2,1305.2,2116.6,1309z"/>
		</g>
		<g>
			<path class="st20" d="M2359.4,1768c0,0,9.9,9,8,15.4c-1.9,6.4-10.8,10.7-12.1,18.5c-1.2,7.8-6,12.1-10.4,12.1s-20.7,0-20.7,0
				s-3.2-5.5,4.5-7.2c7.7-1.7,10.6-10.9,10.1-19.4c-0.5-8.5,0.7-19.9,0.7-19.9l16.4-3.8L2359.4,1768z"/>
			<path class="st20" d="M2238.1,1791.4c0,0,1.8,20.5-2.6,22.7l-55.5-0.1c0,0,0-6.4,8.9-7.8c8.9-1.4,24.6-6.6,27.2-18.3
				C2218.9,1776.2,2238.1,1791.4,2238.1,1791.4z"/>
			<path class="st4" d="M2191.3,1501.4c0,0,2.9,36,6.4,79.2c4.7,58.8,10.3,130.9,10.9,144.6c1,23.7,4.8,61.7,4.8,61.7
				s9.2,9,27.5,5.2c0,0,16.3-54.2,21-111.6c0.1-0.9,0.1-1.9,0.2-2.8c4.3-58.4,11.1-181.3,11.1-181.3L2191.3,1501.4z"/>
			<path class="st21" d="M2191.3,1501.4c0,0,2.9,36,6.4,79.2l64.2,100c0.1-0.9,0.1-1.9,0.2-2.8c4.3-58.4,11.1-181.3,11.1-181.3
				L2191.3,1501.4z"/>
			<path class="st4" d="M2204.6,1505.7c0,0,52.8,130.3,87.5,191.5s45.6,78.3,45.6,78.3s19.9-7.8,21.7-13.2c0,0-13.3-118.2-36.5-147
				c-13.1-16.3-28.6-65.2-29.3-82.2c-0.7-17.1-4.7-50.9-4.7-50.9L2204.6,1505.7z"/>
		</g>
		<path class="st8" d="M2250.2,1310.2c0,0-35.4,17.9-56.1,12c0,0,4.9-6.5,13.7-11.4c-0.8-4.1-1.4-7.7-1.8-10.7c-1-7-1.1-11-1.1-11
			l13.6-11.1l12.9-10.6C2230.9,1296.5,2250.2,1310.2,2250.2,1310.2z"/>
		<path class="st10" d="M2285.3,1492.5c-14.3,8.6-27.8,15.1-43.6,18.8c-18.7,4.4-41.6,3.1-49.3,4.3c-0.8,0.1-1.5-0.1-2.2-0.6
			c-0.6-0.3-4-23.1-7.4-51.8c-0.2-1.2-0.3-2.3-0.4-3.5l-0.1-0.4c-1.3-11.2-2.5-23-3.5-34.9c-0.8-9.2-1.5-18.3-2-26.9
			c-0.6-10.7-0.8-20.5-0.6-28.6c0.1-3.7,0.3-7,0.7-9.9c2-16.8,10-28.8,17.6-37.7l6.3-7.1c7.3,0.5,14.7-0.9,21.6-5.5
			c7.6-5,15.9-11,17.5-10.1c11.7,6.4,21.2,23.6,28,45.5c3.9,12.6,6.9,26.9,8.8,42.1c0.6,4.7,1.1,9.5,1.5,14.3
			c0.1,0.9,0.1,1.8,0.2,2.7c0.9,13.1,2.4,25.5,4.1,36.4c2.2,14.8,4.8,27.3,6.6,36c0.9,4.5,1.6,7.9,2,10.4
			C2291.5,1488.2,2287.2,1491.3,2285.3,1492.5z"/>
		<path class="st22" d="M2231.8,1278.4c0,0-8.7,16.6-25.8,21.6c-1-7-1.1-11-1.1-11l13.6-11.1L2231.8,1278.4z"/>
		<path class="st8" d="M2198.6,1288.7c0,0,34.2,4.9,37-16.1c2.8-21,9.1-34.5-12.6-38.5s-27,3.5-29.7,10.2
			C2190.6,1251.1,2189.8,1286.9,2198.6,1288.7z"/>
		<path class="st23" d="M2247.1,1231.1c0.3-0.4,1-0.7,2.6-0.8c0,0-1.3-0.8-3-0.8c-0.4-2.2-1.6-6.1-5.4-7c0,0,2.1,1,2.4,3.4
			c-4.5-4.4-14-7.5-40.1-5c-34.4,3.4-22.6,25.2-18.1,27.7c4.5,2.5,15.6-4.9,23.9-4.4s10.1,12.5,13,14c2.8,1.6,1.7-1.3,5.5-3.1
			c3.8-1.8,4.3,4.5,3.2,8.6s4.3,9.4,4.3,9.4s0,0,5.2-5.8c5.2-5.8,9.7-30,7.2-35.1C2247.6,1232,2247.4,1231.5,2247.1,1231.1z"/>
		<path class="st9" d="M2236.3,1370.9c0,0-28.8,21.9-59.4,26.7c-0.6-10.7-0.8-20.5-0.6-28.6L2236.3,1370.9z"/>
		<g>
			<path class="st8" d="M2059.3,1342.6c-0.5-0.5-6.3-20.1-16.5-18.7c-6.6,0.9-17.5,4.8-14.6,13.5c1.1,3.4,21.3,15.3,21.3,15.3
				L2059.3,1342.6z"/>
			<path class="st10" d="M2239.8,1328.5c16.4,9.8,15.1,34.3-2.5,41.9c-0.4,0.2-0.7,0.3-1.1,0.5c-27.1,10.9-107.6,12.1-125.8,10.1
				c-19.8-2.2-62.2-26.5-62.2-26.5s3.7-13.6,11.4-15.8c0,0,44.8,12.7,61.9,13.7c10.9,0.6,90.1-41.7,104.7-32.1
				C2230.2,1322.7,2235,1325.6,2239.8,1328.5z"/>
		</g>
	</g>
	<g>
		<g>
			<polygon class="st7" points="1846.2,1717.5 1663.1,1726.5 1663.1,1543.4 1846.2,1534.4 			"/>
			<g>
				<polygon class="st6" points="1676.8,1704.9 1730.9,1604.8 1770.7,1657 1790.5,1634.4 1832.6,1697.3 				"/>
				<path class="st6" d="M1756.7,1589.5c0-7.7,6.3-14.3,14-14.7c7.7-0.4,14,5.6,14,13.3s-6.3,14.3-14,14.7
					C1762.9,1603.2,1756.7,1597.2,1756.7,1589.5z"/>
			</g>
		</g>
		<g>
			<polygon class="st7" points="2390.4,1017.3 2126.6,1030.2 2126.6,766.4 2390.4,753.4 			"/>
			<g>
				<polygon class="st6" points="2146.4,999.1 2224.3,854.8 2281.6,930.1 2310.2,897.4 2370.9,988.1 				"/>
				<path class="st6" d="M2261.5,832.8c0-11.1,9-20.6,20.2-21.2c11.1-0.5,20.2,8,20.2,19.2c0,11.1-9,20.6-20.2,21.2
					C2270.5,852.5,2261.5,843.9,2261.5,832.8z"/>
			</g>
		</g>
		<g>
			<polygon class="st4" points="1921,1216.3 1663.1,1229 1663.1,1214 1921,1201.3 			"/>
			<polygon class="st7" points="1801.4,1252.6 1663.1,1259.4 1663.1,1251.9 1801.4,1245.1 			"/>
			<polygon class="st7" points="1760.8,1279.6 1663.1,1284.4 1663.1,1276.9 1760.8,1272.1 			"/>
			<polygon class="st7" points="1877.6,1273.9 1779.8,1278.7 1779.8,1271.2 1877.6,1266.4 			"/>
			<polygon class="st7" points="2010.7,1267.3 1891.5,1273.2 1891.5,1265.7 2010.7,1259.8 			"/>
			<polygon class="st7" points="1747.9,1304.7 1663.1,1308.9 1663.1,1301.4 1747.9,1297.2 			"/>
			<polygon class="st7" points="1849.3,1299.8 1764.4,1303.9 1764.4,1296.4 1849.3,1292.2 			"/>
			<polygon class="st7" points="1964.8,1294.1 1861.4,1299.2 1861.4,1291.7 1964.8,1286.6 			"/>
		</g>
		<g>
			<polygon class="st4" points="1921,1046.7 1663.1,1059.4 1663.1,1044.4 1921,1031.7 			"/>
			<polygon class="st7" points="1801.4,1083 1663.1,1089.8 1663.1,1082.3 1801.4,1075.5 			"/>
			<polygon class="st7" points="1966.5,1074.9 1828.2,1081.7 1828.2,1074.2 1966.5,1067.4 			"/>
			<polygon class="st7" points="1760.8,1110 1663.1,1114.8 1663.1,1107.3 1760.8,1102.5 			"/>
			<polygon class="st7" points="1877.6,1104.3 1779.8,1109.1 1779.8,1101.6 1877.6,1096.8 			"/>
			<polygon class="st7" points="2010.7,1097.8 1891.5,1103.6 1891.5,1096.1 2010.7,1090.2 			"/>
			<polygon class="st7" points="1747.9,1135.2 1663.1,1139.3 1663.1,1131.8 1747.9,1127.6 			"/>
			<polygon class="st7" points="1849.3,1130.2 1764.4,1134.4 1764.4,1126.8 1849.3,1122.7 			"/>
			<polygon class="st7" points="1964.8,1124.5 1861.4,1129.6 1861.4,1122.1 1964.8,1117 			"/>
		</g>
		<g>
			<polygon class="st4" points="2306.6,1067.7 2125.1,1076.6 2125.1,1066 2306.6,1057.1 			"/>
			<polygon class="st7" points="2222.4,1093.2 2125.1,1098 2125.1,1092.7 2222.4,1087.9 			"/>
			<polygon class="st7" points="2338.6,1087.5 2241.3,1092.3 2241.3,1087 2338.6,1082.2 			"/>
			<polygon class="st7" points="2193.9,1112.2 2125.1,1115.6 2125.1,1110.3 2193.9,1106.9 			"/>
			<polygon class="st7" points="2276,1108.1 2207.2,1111.5 2207.2,1106.2 2276,1102.9 			"/>
			<polygon class="st7" points="2369.6,1103.5 2285.8,1107.7 2285.8,1102.4 2369.6,1098.3 			"/>
			<polygon class="st7" points="2184.8,1129.9 2125.1,1132.8 2125.1,1127.5 2184.8,1124.6 			"/>
			<polygon class="st7" points="2256.1,1126.4 2196.4,1129.3 2196.4,1124 2256.1,1121.1 			"/>
			<polygon class="st7" points="2337.4,1122.4 2264.6,1125.9 2264.6,1120.6 2337.4,1117.1 			"/>
		</g>
		<g>
			<polygon class="st4" points="1921,1393.2 1663.1,1405.9 1663.1,1390.9 1921,1378.2 			"/>
			<polygon class="st7" points="1801.4,1429.5 1663.1,1436.3 1663.1,1428.8 1801.4,1422 			"/>
			<polygon class="st7" points="1966.5,1421.4 1828.2,1428.2 1828.2,1420.7 1966.5,1413.9 			"/>
			<polygon class="st7" points="1760.8,1456.5 1663.1,1461.3 1663.1,1453.8 1760.8,1449 			"/>
			<polygon class="st7" points="1877.6,1450.8 1779.8,1455.6 1779.8,1448.1 1877.6,1443.3 			"/>
			<polygon class="st7" points="2010.7,1444.2 1891.5,1450.1 1891.5,1442.6 2010.7,1436.7 			"/>
			<polygon class="st7" points="1747.9,1481.6 1663.1,1485.8 1663.1,1478.3 1747.9,1474.1 			"/>
			<polygon class="st7" points="1849.3,1476.7 1764.4,1480.8 1764.4,1473.3 1849.3,1469.1 			"/>
			<polygon class="st7" points="1964.8,1471 1861.4,1476.1 1861.4,1468.6 1964.8,1463.5 			"/>
		</g>
		<g>
			<polygon class="st4" points="2092.7,1628.9 1893.4,1638.7 1893.4,1623.6 2092.7,1613.9 			"/>
			<polygon class="st7" points="2000.3,1663.8 1893.4,1669.1 1893.4,1661.6 2000.3,1656.3 			"/>
			<polygon class="st7" points="2127.8,1657.6 2021,1662.8 2021,1655.3 2127.8,1650.1 			"/>
			<polygon class="st7" points="1968.9,1690.4 1893.4,1694.1 1893.4,1686.6 1968.9,1682.9 			"/>
			<polygon class="st7" points="2059.1,1685.9 1983.6,1689.7 1983.6,1682.1 2059.1,1678.4 			"/>
			<polygon class="st7" points="2161.9,1680.9 2069.9,1685.4 2069.9,1677.9 2161.9,1673.4 			"/>
			<polygon class="st7" points="1959,1715.4 1893.4,1718.6 1893.4,1711.1 1959,1707.8 			"/>
			<polygon class="st7" points="2037.3,1711.5 1971.7,1714.7 1971.7,1707.2 2037.3,1704 			"/>
			<polygon class="st7" points="2126.5,1707.1 2046.6,1711 2046.6,1703.5 2126.5,1699.6 			"/>
		</g>
	</g>
	<g>
		<g>
			<polygon class="st7" points="1519.5,1107.5 1232,1097 1232,809.5 1519.5,820 			"/>
			<g>
				<polygon class="st6" points="1253.5,1065 1338.5,914.9 1400.9,1002.4 1432.1,969.4 1498.2,1073.9 				"/>
				<path class="st6" d="M1378.9,894.4c0-12.1,9.8-21.6,22-21.2c12.1,0.4,22,10.6,22,22.8s-9.8,21.6-22,21.2
					C1388.8,916.8,1378.9,906.6,1378.9,894.4z"/>
			</g>
		</g>
		<g>
			<polygon class="st4" points="1485.1,1220.8 1227.1,1211.5 1227.1,1196.5 1485.1,1205.8 			"/>
			<polygon class="st7" points="1365.4,1246.9 1227.1,1241.9 1227.1,1234.4 1365.4,1239.4 			"/>
			<polygon class="st7" points="1324.9,1270.4 1227.1,1266.9 1227.1,1259.4 1324.9,1262.9 			"/>
			<polygon class="st7" points="1441.6,1274.7 1343.9,1271.1 1343.9,1263.6 1441.6,1267.2 			"/>
			<polygon class="st7" points="1574.7,1279.5 1455.6,1275.2 1455.6,1267.7 1574.7,1272 			"/>
			<polygon class="st7" points="1312,1294.5 1227.1,1291.4 1227.1,1283.9 1312,1287 			"/>
			<polygon class="st7" points="1413.4,1298.1 1328.5,1295.1 1328.5,1287.6 1413.4,1290.6 			"/>
			<polygon class="st7" points="1528.9,1302.3 1425.5,1298.6 1425.5,1291.1 1528.9,1294.8 			"/>
		</g>
		<g>
			<polygon class="st4" points="1485.1,1397.7 1227.1,1388.4 1227.1,1373.4 1485.1,1382.7 			"/>
			<polygon class="st7" points="1365.4,1423.8 1227.1,1418.8 1227.1,1411.3 1365.4,1416.3 			"/>
			<polygon class="st7" points="1530.6,1429.8 1392.3,1424.8 1392.3,1417.3 1530.6,1422.3 			"/>
			<polygon class="st7" points="1324.9,1447.4 1227.1,1443.8 1227.1,1436.3 1324.9,1439.8 			"/>
			<polygon class="st7" points="1441.6,1451.6 1343.9,1448 1343.9,1440.5 1441.6,1444.1 			"/>
			<polygon class="st7" points="1574.7,1456.4 1455.6,1452.1 1455.6,1444.6 1574.7,1448.9 			"/>
			<polygon class="st7" points="1312,1471.4 1227.1,1468.3 1227.1,1460.8 1312,1463.9 			"/>
			<polygon class="st7" points="1413.4,1475 1328.5,1472 1328.5,1464.5 1413.4,1467.5 			"/>
			<polygon class="st7" points="1528.9,1479.2 1425.5,1475.5 1425.5,1468 1528.9,1471.7 			"/>
		</g>
		<g>
			<polygon class="st4" points="1118.5,781.7 860.5,772.3 860.5,757.3 1118.5,766.7 			"/>
			<polygon class="st7" points="998.8,807.8 860.5,802.7 860.5,795.2 998.8,800.2 			"/>
			<polygon class="st7" points="1164,813.8 1025.7,808.7 1025.7,801.2 1164,806.2 			"/>
			<polygon class="st7" points="958.3,831.3 860.5,827.7 860.5,820.2 958.3,823.8 			"/>
			<polygon class="st7" points="1075.1,835.5 977.3,832 977.3,824.5 1075.1,828 			"/>
			<polygon class="st7" points="1208.1,840.4 1089,836 1089,828.5 1208.1,832.8 			"/>
			<polygon class="st7" points="945.4,855.3 860.5,852.2 860.5,844.7 945.4,847.8 			"/>
			<polygon class="st7" points="1046.8,859 961.9,855.9 961.9,848.4 1046.8,851.5 			"/>
			<polygon class="st7" points="1162.3,863.2 1058.9,859.4 1058.9,851.9 1162.3,855.7 			"/>
		</g>
	</g>
	<g>
		<path class="st24" d="M985.6,477.6l22.6-5.4l74.5,101l-25.7,6.1l-16.1-22.6L993.8,568l-4.3,27.5l-25,5.9L985.6,477.6z M1027,537.2
			l-23.4-32.7l-6.2,39.7L1027,537.2z"/>
	</g>
	<g>
		<path class="st24" d="M1112.6,411.5c3.2-32.4,30.3-56.6,65.4-53.1c21.5,2.1,32.8,11.5,42.3,23l-16.7,15.8
			c-8-8.9-15-14.3-28.1-15.6c-19.2-1.9-34.7,12.7-36.7,32.6c-1.9,19.6,10,37.2,29.5,39.2c13,1.3,21.6-3.1,31.3-10.4l14.3,18.7
			c-13,11.4-26.7,16.9-48.7,14.8C1131.7,473,1109.3,444.6,1112.6,411.5z"/>
	</g>
	<g>
		<path class="st24" d="M1458.3,380.5l52.6-8.5c12.9-2.1,23.7-0.2,31.2,5.3c6,4.3,9.6,10.2,10.9,18.3c2.1,12.8-3.6,21-10.9,26.8
			c13.9,2.9,23.2,9.2,25.7,24.7c3.3,20.7-11.8,33.8-37.4,37.9l-53.9,8.7L1458.3,380.5z M1513,418.7c11-1.8,17.4-6.5,16-15.2
			c-1.2-7.4-7.7-10.7-18.2-9l-24.6,4l3.9,23.9L1513,418.7z M1527,463.2c11-1.8,17-6.7,15.6-15.5c-1.2-7.6-7.6-11.4-20.4-9.3
			l-28.8,4.6l4,24.9L1527,463.2z"/>
	</g>
	<g>
		<path class="st24" d="M1261.1,569.7c2.8-32.5,30.3-57,64.9-54c20.6,1.7,32.5,8.4,43.6,19.5l-17.5,17.8c-8.2-8.1-15.7-13-28.9-14.1
			c-18.3-1.6-34.2,13.4-35.9,33.1c-1.8,20.9,11.3,37.5,31.5,39.2c9.1,0.8,17.5-0.8,24.3-4.8l1.4-16.3l-25.3-2.2l1.8-21.7l49.6,4.2
			l-4.2,49.6c-12.6,9-29.5,15.8-50.4,14C1280.5,630.9,1258.2,603.8,1261.1,569.7z"/>
	</g>
	<g>
		<path class="st24" d="M2654.6,692.4c-10.7,4.1-22.9,5.2-35.4,2.6c-34.6-7.3-54-38.4-47.2-70.6c6.8-31.9,37.4-52.7,72.1-45.4
			c34.6,7.3,54,38.4,47.2,70.6c-2.5,11.7-8.4,22.2-16.8,30.1l9.5,12.2l-19.4,14.2L2654.6,692.4z M2639.8,672.4l-15-19.4l19.4-14.3
			l14.9,20.6c3.1-4.2,5.1-9.1,6.4-15.1c4.1-19.2-6.6-38.3-26.5-42.5c-19.9-4.2-37,8.6-41.1,28.1c-4.1,19.2,6.6,38.3,26.5,42.5
			C2629.8,673.5,2635,673.4,2639.8,672.4z"/>
	</g>
	<g>
		<path class="st24" d="M2396.4,450.2l23.1-3.1l62.7,62.8l-9.5-70l24.7-3.3l15.4,113.7l-21.3,2.9l-64.8-64.8l9.8,72.3l-24.7,3.3
			L2396.4,450.2z"/>
	</g>
	<g>
		<path class="st24" d="M1648.4,510.4l26.9,2.8l15.6,79.7l33.7-74.9l21.5,2.2l17.5,80.2l31.7-74.8l26.2,2.7l-50.9,110.9l-21.8-2.3
			l-18-77.3l-33.5,72l-21.8-2.3L1648.4,510.4z"/>
	</g>
	<g>
		<path class="st16" d="M469.6,1780c0,1.4,0.1,2.8,0.3,4.1c0.5,4.3,1.8,8.3,3.8,12c1.5,2.8,3.5,5.4,5.8,7.7
			c6.1,6.1,14.5,9.8,23.7,9.8H975c18.5,0,33.6-15,33.6-33.6c0-9.3-3.8-17.7-9.8-23.7c-6.1-6.1-14.5-9.8-23.7-9.8H503.1
			C484.6,1746.4,469.6,1761.4,469.6,1780z"/>
		<path class="st16" d="M505.6,1740.3h161.8c2.8,0,5.1-2.3,5.1-5.1l0,0c0-2.8-2.3-5.1-5.1-5.1H505.6c-2.8,0-5.1,2.3-5.1,5.1l0,0
			C500.4,1738,502.7,1740.3,505.6,1740.3z"/>
		
			<rect x="514.5" y="1740.3" transform="matrix(-1 -1.224647e-16 1.224647e-16 -1 1046.5713 3486.7344)" class="st25" width="17.5" height="6.1"/>
		<path class="st25" d="M473.7,1796c1.5,2.8,3.5,5.4,5.8,7.7c6.1,6.1,14.5,9.8,23.7,9.8h100V1796H473.7z"/>
		<path class="st4" d="M1071,1770.1v19.7c0,2.2-0.3,4.2-0.8,6.2c-2.7,10.1-11.9,17.5-22.9,17.5H555.8c-11,0-20.2-7.4-22.9-17.5
			c-0.5-2-0.8-4.1-0.8-6.2v-19.7c0-13.1,10.6-23.7,23.7-23.7h491.5C1060.4,1746.4,1071,1757,1071,1770.1z"/>
		<path class="st26" d="M1070.2,1796c-2.7,10.1-11.9,17.5-22.9,17.5H555.8c-11,0-20.2-7.4-22.9-17.5H1070.2z"/>
		<g>
			<path class="st2" d="M1022.2,1780.1c0,10.4,3.8,19.7,9.8,25.9c0.1,0.1,0.3,0.3,0.4,0.4c4.6,4.6,10.5,7.4,16.8,7.4
				c10,0,34.6-15,49.9-25c7.6-5,12.9-8.7,12.9-8.7s-5.3-3.7-12.9-8.7c-15.3-10-39.9-25-49.9-25c-2.9,0-5.7,0.6-8.3,1.6
				c-4.4,1.8-8.3,4.9-11.4,9c-3.4,4.5-5.8,10.1-6.8,16.4c0,0.1,0,0.1,0,0.2C1022.4,1775.7,1022.2,1777.9,1022.2,1780.1z"/>
			<path class="st27" d="M1022.2,1780.1c0,10.4,3.8,19.7,9.8,25.9l75.7-26l-84.9-6.3C1022.4,1775.7,1022.2,1777.9,1022.2,1780.1z"/>
			<path class="st28" d="M1029.6,1757l75.5,20.6L1041,1748C1036.6,1749.8,1032.7,1752.9,1029.6,1757z"/>
			<path class="st4" d="M1094.2,1780.1c0,4,2.1,7.4,4.9,8.7c7.6-5,12.9-8.7,12.9-8.7s-5.3-3.7-12.9-8.7
				C1096.2,1772.6,1094.2,1776.1,1094.2,1780.1z"/>
		</g>
	</g>
	<g>
		<g>
			<path class="st9" d="M875,1815.7L875,1815.7c3.4,0,6.9-2.4,7.9-5.5l203.4-624.8c1-3.1-0.9-5.6-4.3-5.6l0,0
				c-3.4,0-6.9,2.4-7.9,5.5l-203.4,624.8C869.7,1813.2,871.6,1815.7,875,1815.7z"/>
			<path class="st9" d="M711.1,1814.8L711.1,1814.8c3.4,0,6.9-2.4,7.9-5.5l203.4-624.8c1-3.1-0.9-5.6-4.3-5.6l0,0
				c-3.4,0-6.9,2.4-7.9,5.5l-203.4,624.8C705.8,1812.3,707.7,1814.8,711.1,1814.8z"/>
			<path class="st9" d="M887.6,1271.5l164.6,1c3.2,0,6.5-2.3,7.5-5.2l0,0c0.9-2.9-0.9-5.2-4.1-5.3l-164.6-1c-3.2,0-6.5,2.3-7.5,5.2
				l0,0C882.6,1269.1,884.4,1271.5,887.6,1271.5z"/>
			<path class="st9" d="M852.1,1380.6l164.6,1c3.2,0,6.5-2.3,7.5-5.2l0,0c0.9-2.9-0.9-5.2-4.1-5.3l-164.6-1c-3.2,0-6.5,2.3-7.5,5.2
				l0,0C847.1,1378.2,848.9,1380.6,852.1,1380.6z"/>
			<path class="st9" d="M817.9,1485.7l164.6,1c3.2,0,6.5-2.3,7.5-5.2l0,0c0.9-2.9-0.9-5.2-4.1-5.3l-164.6-1c-3.2,0-6.5,2.3-7.5,5.2
				l0,0C812.9,1483.3,814.7,1485.7,817.9,1485.7z"/>
			<path class="st9" d="M779.4,1604l164.6,1c3.2,0,6.5-2.3,7.5-5.2l0,0c0.9-2.9-0.9-5.2-4.1-5.3l-164.6-1c-3.2,0-6.5,2.3-7.5,5.2
				l0,0C774.4,1601.6,776.2,1603.9,779.4,1604z"/>
			<path class="st9" d="M739.1,1727.8l164.6,1c3.2,0,6.5-2.3,7.5-5.2l0,0c0.9-2.9-0.9-5.2-4.1-5.3l-164.6-1c-3.2,0-6.5,2.3-7.5,5.2
				l0,0C734.1,1725.4,735.9,1727.7,739.1,1727.8z"/>
		</g>
		<g>
			<path class="st8" d="M1043.5,1043.9c0,0,1.9-4.4,3.2-6.5c1.3-2.1,6.6-8.1,7.6-6.8c0.9,1.4,4.6,10.6,2.6,13.2
				c-1.9,2.6,0.1,7.1-9.6,9.8L1043.5,1043.9z"/>
			<path class="st21" d="M935.8,1016.3c0,0,49.6,41.4,68.9,37.6c15.1-3,38.3-11,38.3-11l4.6,11.9c0,0-20.8,28.2-42.5,28.4
				c-33.9,0.3-59-14.7-59-14.7L935.8,1016.3z"/>
			<path class="st29" d="M848.9,1452.9c0,0,1.4,23.2,5.9,23.6c0.6,0,22.8,0,22.8,0l28.3-0.2c0,0-0.2-6.8-8.5-8.3
				c-8.3-1.4-22.1-7.3-27.2-18.2C865,1438.3,848.9,1452.9,848.9,1452.9z"/>
			<path class="st10" d="M847.2,1454.5c0,0,8.6,2.9,15.3,2.9c7.5,0,14.3-2,14.3-2s1.6-15.7,10.5-50.2c4.7-18.1,11.4-41.4,20.9-70.3
				c26.3-79.9,34.3-126.7,35-131.1c0-0.2,0.1-0.3,0.1-0.3l-0.1,0l-80.8-35.5c0,0,10,110.2-2.8,152.5c-1.8,5.9-3.3,12.8-4.6,20.3
				C847.1,1386.5,847.2,1454.5,847.2,1454.5z"/>
			<path class="st9" d="M887.4,1405.1c4.7-18.1,11.4-41.4,20.9-70.3c26.3-79.9,34.3-126.7,35-131.1c0-0.1,0-0.3,0-0.4l-80.8-35.5
				c0,0,10,110.2-2.8,152.5C857.9,1326.2,887.4,1405.1,887.4,1405.1z"/>
			<path class="st29" d="M912,1452.9c0,0,1.4,23.2,5.9,23.6c0.6,0,22.8,0,22.8,0l28.3-0.2c0,0-0.2-6.8-8.5-8.3
				c-8.3-1.4-22.1-7.3-27.2-18.2C928.1,1438.3,912,1452.9,912,1452.9z"/>
			<path class="st10" d="M957.8,1170.4c0,0,1,71.4-11.3,159.1c-12.4,87.7-8.2,124.9-8.2,124.9s-8.5,2.8-11.9,3
				c-8.7,0.7-17.7-2-17.7-2s-17.7-87.7-12.6-131.6c5.1-43.9-24.2-150.6-24.2-150.6L957.8,1170.4z"/>
			<path class="st8" d="M900.5,1003.3l15.8,10.3l14.4-4.1c2.6-3.7,3.3-11,3.4-17.2c0-6.2-0.6-11.5-0.6-11.5l-21.3-9.4l-7.9-3.5
				c0,0.1,0.6,6.5,0.7,7.5C906.4,992.1,900.5,1003.3,900.5,1003.3z"/>
			<path class="st4" d="M958.1,1190.3c-19.6,18.9-93.9,15.8-98.5-5.1c-4.6-20.9,5-177.7,38.5-187.6c7-2,44.1,10,44.1,10
				s5.8,15.3,9.7,34.7c0.7,3.8,2.9,43.9,4.5,81.4c0.8,17.5,1.4,34.5,1.7,46.9C958.5,1182.2,958.5,1189.9,958.1,1190.3z"/>
			<path class="st30" d="M906.5,975.8c4.3,7.3,19.5,13.7,27.5,16.6c0-6.2-0.6-11.5-0.6-11.5l-21.3-9.4
				C907.4,971.5,904.6,972.5,906.5,975.8z"/>
			<path class="st8" d="M941.4,979.6c0,0-34.3,10.7-40.6-10.8c-6.3-21.4-15-34.5,6.6-42.2c21.6-7.7,28.3-0.8,32.2,5.8
				C943.4,939.1,950.2,976.3,941.4,979.6z"/>
			<path class="st31" d="M938.2,930.4c0,0-2.2,25-7.3,23.9c-5.2-1.1-10.8-3.4-10.1,4.1c0.8,7.5-5,20.4-12.5,20.4
				c-16-0.1-33.3-41-28.9-48.8C892,907.6,956.5,903.1,938.2,930.4z"/>
			<path class="st21" d="M933.2,998.1c-0.4-0.2-25.5-11.4-28.4-10.5c-2.9,1-6.6,9.9-6.6,9.9l44.2,10
				C942.3,1007.6,938.8,1000.5,933.2,998.1z"/>
			<g>
				<path class="st32" d="M1089.3,1119.6l-140.6,132.3c-2.8,2.6-6.2,3.4-7.7,1.8l-4.7-5c-1.5-1.6-0.5-5,2.3-7.6l140.6-132.3
					c2.8-2.6,6.2-3.4,7.7-1.8l4.7,5C1093.1,1113.6,1092,1117,1089.3,1119.6z"/>
				<path class="st16" d="M1010.4,1193.9l-61.7,58.1c-2.8,2.6-6.2,3.4-7.7,1.8l-4.7-5c-1.5-1.6-0.5-5,2.3-7.6l61.7-58.1
					L1010.4,1193.9z"/>
				<path class="st32" d="M1057,1069.6c5.4,17.8,15.4,34.4,29.9,48.1c44.3,41.7,114,39.6,155.7-4.7c41.1-43.7,39.6-112.2-3-154.1
					c-0.6-0.6-1.1-1.1-1.7-1.7c-44.3-41.7-114-39.6-155.7,4.7C1054.1,991.8,1045.9,1033.1,1057,1069.6z M1088.5,967.9
					c24.3-25.8,58.8-36.1,91.3-30.4c18.9,3.3,37.1,11.9,52.1,26.1c40.8,38.4,42.8,102.6,4.4,143.4c-14.1,15-31.8,24.8-50.4,29.2
					c-32.1,7.6-67.2-0.6-93-24.8C1052,1073,1050.1,1008.8,1088.5,967.9z"/>
				<g class="st33">
					<path class="st34" d="M1236.3,1107c-14.1,15-31.8,24.8-50.4,29.2c-32.1,7.6-67.2-0.6-93-24.8c-40.8-38.4-42.8-102.6-4.4-143.4
						c24.3-25.8,58.8-36.1,91.3-30.4c18.9,3.3,37.1,11.9,52.1,26.1C1272.7,1002,1274.7,1066.2,1236.3,1107z"/>
				</g>
			</g>
			<path class="st21" d="M958.2,1170.6c-77.4-55.2-71-128.8-71-128.8c28.3,16,56.4,51.3,69.3,81.9
				C957.3,1141.2,957.9,1158.1,958.2,1170.6z"/>
			<g>
				<path class="st4" d="M1034.7,1145.4c5.5-1.3,9.1-5.4,9.9-6.1c0,0,2.3,0.2-0.4,5.1c-0.2,0.4-0.7,1.5-1.1,2.2
					c-0.2,0.3,0.1,0.7,0.4,0.7c3.2,0.2,6.3-1,12.4,0.3c0.8,0.2,1.1,2.2,1,3c-0.1,1.4,0,3.1-1.6,5.3c-1,1.3-3.7,2.7-9.8,5.1
					c-2.3,0.9-8.9,0.2-15.1-1.9l-5-2.3l1.5-9.2l1.2,0.3C1030.2,1148.4,1032.6,1145.9,1034.7,1145.4z"/>
				<path class="st4" d="M911.3,1007.6c0,0-69.6,13.2,20.5,114c14.4,16.1,92.2,37.1,92.2,37.1s7.9-6.7,3.9-12.2
					c0,0-53.6-38.9-65.4-45.1c-5.3-2.8-20.6-62.1-29.2-76.4C924.6,1010.8,911.3,1007.6,911.3,1007.6z"/>
			</g>
			<path class="st8" d="M1045.4,1045.2c0,0,2.3-4.4,2.7-6.6c0.4-2.3,3.3-9,4.5-10.2c0.5-0.5,2,0.1,2.2,2.2c0.1,0.9-0.4,2.5-1.1,4.4
				c-1.2,3.1-1,7.3-1.5,8.7C1051.1,1047.2,1045.4,1045.2,1045.4,1045.2z"/>
		</g>
	</g>
	<path class="st35" d="M2987.5,1824.1l-2792.6-1c-2.1,0-3.8-1.7-3.8-3.8l0-3c0-2.1,1.7-3.8,3.8-3.8l2792.6,1c2.1,0,3.8,1.7,3.8,3.8
		v3C2991.3,1822.4,2989.6,1824.1,2987.5,1824.1z"/>
</g>
</svg>
